PathFileType	4	(X/Y/Z)	/Users/itak/Documents/Research/Walk-IL/dataset/trc/00551_00009.trc
DataRate	CameraRate	NumFrames	NumMarkers	Units	OrigDataRate	OrigDataStartFrame	OrigNumFrames
100.000000	100.000000	4	53	mm	100.000000	0	489
Frame#	Time	RPSI			LPSI			L3			STRN			T10			C7			CLAV			RBAK			LBAK			LSHO			LUPA			LAEL			LAOL			LWTS			LWPS			LFRA			LIFD			LHPS			LHTS			RSHO			RUPA			RAEL			RAOL			RWTS			RWPS			RFRA			RIFD			RHTS			RHPS			RBHD			LFHD			RFHD			LBHD			LHIP			RHIP			RASI			LASI			LKNE			LTHI			LANK			LTIP			LTOE			LMT1			LMT5			LHEE			RKNE			RTHI			RANK			RTIP			RTOE			RMT1			RMT5			RHEE			
		X1	Y1	Z1	X2	Y2	Z2	X3	Y3	Z3	X4	Y4	Z4	X5	Y5	Z5	X6	Y6	Z6	X7	Y7	Z7	X8	Y8	Z8	X9	Y9	Z9	X10	Y10	Z10	X11	Y11	Z11	X12	Y12	Z12	X13	Y13	Z13	X14	Y14	Z14	X15	Y15	Z15	X16	Y16	Z16	X17	Y17	Z17	X18	Y18	Z18	X19	Y19	Z19	X20	Y20	Z20	X21	Y21	Z21	X22	Y22	Z22	X23	Y23	Z23	X24	Y24	Z24	X25	Y25	Z25	X26	Y26	Z26	X27	Y27	Z27	X28	Y28	Z28	X29	Y29	Z29	X30	Y30	Z30	X31	Y31	Z31	X32	Y32	Z32	X33	Y33	Z33	X34	Y34	Z34	X35	Y35	Z35	X36	Y36	Z36	X37	Y37	Z37	X38	Y38	Z38	X39	Y39	Z39	X40	Y40	Z40	X41	Y41	Z41	X42	Y42	Z42	X43	Y43	Z43	X44	Y44	Z44	X45	Y45	Z45	X46	Y46	Z46	X47	Y47	Z47	X48	Y48	Z48	X49	Y49	Z49	X50	Y50	Z50	X51	Y51	Z51	X52	Y52	Z52	X53	Y53	Z53	

1	0	-922.3260498046875	1026.701049804688	290.5257263183594	-914.7752075195312	1031.063598632812	157.0077972412109	-909.5620727539062	1105.42626953125	220.2015075683594	-680.6396484375	1300.478393554688	219.8927459716797	-923.8196411132812	1231.285034179688	220.1800689697266	-887.4932250976562	1505.468017578125	236.1944732666016	-705.9115600585938	1412.21337890625	221.0175628662109	-949.0284423828125	1376.898071289062	320.4656982421875	-919.2574462890625	1451.826782226562	144.9798583984375	-825.6751098632812	1482.696411132812	62.12841796875	-838.1265258789062	1357.797485351562	-19.76983070373535	-822.5401611328125	1134.959594726562	-43.46439743041992	-906.1812133789062	1129.687744140625	12.02086544036865	-750.7828979492188	880.3854370117188	-5.054446220397949	-798.472412109375	865.929931640625	-77.86243438720703	-805.1011962890625	1046.733154296875	-52.28925323486328	-775.6371459960938	711.4525756835938	-16.71674537658691	-796.845703125	805.0184936523438	-71.02995300292969	-738.744384765625	806.8276977539062	-29.13749504089355	-823.6129760742188	1469.84814453125	388.8708801269531	-839.7483520507812	1404.596557617188	457.3392944335938	-836.2376098632812	1114.155395507812	500.5800170898438	-891.5304565429688	1097.290893554688	473.6220703125	-678.70654296875	910.9577026367188	478.9454956054688	-748.0855102539062	871.93701171875	522.7578125	-825.694580078125	1058.678466796875	508.144287109375	-697.1998901367188	717.2042236328125	459.58837890625	-679.7334594726562	799.3922119140625	467.2049255371094	-732.4232177734375	796.248291015625	517.68994140625	-840.9161987304688	1679.533569335938	298.4540100097656	-694.539794921875	1734.61767578125	161.4585266113281	-709.7666625976562	1728.323608398438	304.9263610839844	-816.7718505859375	1686.239135742188	134.8384094238281	-792.1720581054688	941.3558349609375	30.57010269165039	-809.7645263671875	941.8641967773438	414.5659790039062	-718.346923828125	966.0974731445312	359.3046875	-711.731689453125	961.892333984375	84.51168060302734	-799.479248046875	495.2517395019531	80.74671173095703	-787.8072509765625	660.43505859375	45.27024841308594	-873.9699096679688	33.71348190307617	82.12786865234375	-862.6951904296875	254.1447601318359	72.82765197753906	-661.59912109375	38.81552124023438	128.7641448974609	-731.6777954101562	41.02556228637695	168.2595520019531	-751.9228515625	35.4182243347168	63.12779998779297	-940.7493286132812	37.41393280029297	140.7184448242188	-820.3892822265625	496.7222595214844	372.2799987792969	-785.7487182617188	785.473876953125	413.6846618652344	-904.94189453125	35.64308166503906	355.0087890625	-825.743408203125	356.386962890625	362.323974609375	-681.0331420898438	38.56842803955078	338.5475463867188	-739.1300048828125	40.77161407470703	290.9081115722656	-773.6807861328125	36.13704681396484	390.3172302246094	-953.3875732421875	32.23566818237305	293.1098937988281	
2	0.01	-922.5364379882812	1026.698608398438	290.5791320800781	-915.1219482421875	1031.083740234375	157.1485595703125	-909.7650756835938	1105.433837890625	220.2251129150391	-680.8548583984375	1300.50927734375	219.8160247802734	-924.0403442382812	1231.28759765625	220.1956481933594	-887.7186889648438	1505.474975585938	236.1667633056641	-706.0963134765625	1412.240966796875	220.9121551513672	-949.2178344726562	1376.928833007812	320.548583984375	-919.5396728515625	1451.79833984375	144.9566345214844	-825.9273071289062	1482.656860351562	62.07214736938477	-838.3630981445312	1357.705322265625	-19.75297164916992	-822.3189086914062	1134.9189453125	-43.47972106933594	-905.9633178710938	1129.493408203125	12.00756168365479	-749.5751342773438	880.70166015625	-4.960875511169434	-797.4116821289062	865.953125	-77.66744995117188	-804.5884399414062	1046.750244140625	-52.25516510009766	-773.8685302734375	711.5528564453125	-16.39273643493652	-795.4684448242188	805.0741577148438	-70.75458526611328	-739.203369140625	805.6004028320312	-28.37285995483398	-823.6911010742188	1469.9169921875	388.8440551757812	-839.8095703125	1404.67041015625	457.3116455078125	-836.2922973632812	1114.23583984375	500.6735229492188	-891.4446411132812	1097.3203125	473.6472473144531	-678.4163818359375	911.28271484375	479.074951171875	-747.9574584960938	872.0470581054688	522.7100830078125	-825.4762573242188	1058.745239257812	508.0002136230469	-696.9830322265625	717.3710327148438	459.5254211425781	-679.5419311523438	799.5484619140625	467.0471801757812	-732.3032836914062	796.3577880859375	517.6715087890625	-840.9575805664062	1679.613037109375	298.3818969726562	-694.6654663085938	1734.548950195312	161.3116760253906	-709.7824096679688	1728.304565429688	304.7768859863281	-816.9230346679688	1686.253295898438	134.7279357910156	-792.7835693359375	941.3516845703125	30.62094879150391	-809.8370361328125	941.8729858398438	414.4993896484375	-718.5803833007812	966.1625366210938	359.1255187988281	-712.0390014648438	961.9365234375	84.41223907470703	-799.6415405273438	495.2763061523438	80.67316436767578	-787.966552734375	660.4558715820312	45.21377563476562	-873.96875	33.70629119873047	82.12165069580078	-862.724365234375	254.1329040527344	72.81772613525391	-661.6052856445312	38.82401275634766	128.75634765625	-731.6768798828125	41.02581787109375	168.25634765625	-751.9270629882812	35.42120361328125	63.13747787475586	-940.7532348632812	37.41840744018555	140.7098693847656	-820.4334106445312	496.7279663085938	372.2721252441406	-785.8870849609375	785.5	413.6741638183594	-904.945068359375	35.64051055908203	355.0159301757812	-825.7835693359375	356.4058837890625	362.2952880859375	-681.0309448242188	38.56813049316406	338.5436401367188	-739.1383666992188	40.76822662353516	290.9009094238281	-773.68310546875	36.13793563842773	390.3098449707031	-953.3847045898438	32.22799682617188	293.108154296875	
3	0.02	-922.7953491210938	1026.697631835938	290.6304016113281	-915.532470703125	1031.109130859375	157.2911376953125	-910.0154418945312	1105.442016601562	220.2485046386719	-681.137939453125	1300.539794921875	219.7240447998047	-924.3151245117188	1231.290405273438	220.2007751464844	-888.0048217773438	1505.48486328125	236.1294555664062	-706.3469848632812	1412.275512695312	220.7610778808594	-949.4579467773438	1376.965576171875	320.6450805664062	-919.8997192382812	1451.766723632812	144.9309387207031	-826.2595825195312	1482.6083984375	61.99891662597656	-838.65087890625	1357.597045898438	-19.73478317260742	-822.0000610351562	1134.866333007812	-43.49238967895508	-905.6771850585938	1129.242919921875	11.98244380950928	-748.0279541015625	881.1141967773438	-4.796039581298828	-795.9882202148438	865.9918823242188	-77.39340972900391	-803.9110107421875	1046.775268554688	-52.21476745605469	-771.5543823242188	711.7191162109375	-15.97172260284424	-793.6572875976562	805.1600952148438	-70.38525390625	-739.0552978515625	804.6206665039062	-27.55542373657227	-823.8048095703125	1469.997192382812	388.8031921386719	-839.8948364257812	1404.760009765625	457.2695007324219	-836.35107421875	1114.331909179688	500.7813110351562	-891.3425903320312	1097.359252929688	473.6857604980469	-678.0741577148438	911.6590576171875	479.1852111816406	-747.767822265625	872.19091796875	522.640625	-825.2108154296875	1058.8330078125	507.8309631347656	-696.7037353515625	717.5848388671875	459.4555358886719	-679.2824096679688	799.7615356445312	466.8555297851562	-732.10791015625	796.513671875	517.6590576171875	-841.0196533203125	1679.7109375	298.2879028320312	-694.831787109375	1734.465942382812	161.1261901855469	-709.8146362304688	1728.282958984375	304.5643615722656	-817.116455078125	1686.275634765625	134.5885162353516	-793.3916015625	941.406982421875	30.59762191772461	-809.932373046875	941.885986328125	414.4184265136719	-718.8418579101562	966.2411499023438	358.9487915039062	-712.4075317382812	961.986083984375	84.27493286132812	-799.8311157226562	495.3172607421875	80.56941986083984	-788.1798706054688	660.4888305664062	45.1312255859375	-873.9699096679688	33.69966888427734	82.11041259765625	-862.7610473632812	254.1175842285156	72.801025390625	-661.6124877929688	38.83498764038086	128.7485961914062	-731.6778564453125	41.02423477172852	168.2538146972656	-751.933349609375	35.42501068115234	63.14805603027344	-940.7589721679688	37.42151641845703	140.69873046875	-820.4906005859375	496.7349853515625	372.2657470703125	-786.0451049804688	785.52490234375	413.6401062011719	-904.948974609375	35.63666915893555	355.0233764648438	-825.82763671875	356.4221801757812	362.2630920410156	-681.0291748046875	38.56924438476562	338.5391235351562	-739.1495361328125	40.76311111450195	290.8922424316406	-773.6856689453125	36.13979339599609	390.2997741699219	-953.3794555664062	32.21358871459961	293.1035766601562	
4	0.03	-923.089599609375	1026.699340820312	290.6720581054688	-915.9812622070312	1031.139892578125	157.4160461425781	-910.3043823242188	1105.45068359375	220.2687072753906	-681.483154296875	1300.566040039062	219.6215362548828	-924.6343994140625	1231.293701171875	220.1914978027344	-888.3406372070312	1505.498291015625	236.0814208984375	-706.656494140625	1412.315185546875	220.5681610107422	-949.7390747070312	1377.005859375	320.7467651367188	-920.3236083984375	1451.73486328125	144.9039916992188	-826.665283203125	1482.554077148438	61.91069793701172	-838.9718017578125	1357.48095703125	-19.71891021728516	-821.5786743164062	1134.804077148438	-43.49858093261719	-905.3264770507812	1128.942993164062	11.94054222106934	-746.1861572265625	881.6161499023438	-4.546354293823242	-794.2138061523438	866.0509033203125	-77.03782653808594	-803.0798950195312	1046.81103515625	-52.16863632202148	-768.7394409179688	711.9599609375	-15.45997428894043	-791.445556640625	805.281494140625	-69.92561340332031	-738.1227416992188	804.0625	-26.74253273010254	-823.957763671875	1470.08251953125	388.7453002929688	-840.0051879882812	1404.8603515625	457.2110595703125	-836.4053955078125	1114.4375	500.8935852050781	-891.2315063476562	1097.406860351562	473.7388610839844	-677.7357788085938	912.0323486328125	479.2230834960938	-747.513427734375	872.3653564453125	522.550537109375	-824.9155883789062	1058.939575195312	507.651123046875	-696.36669921875	717.8379516601562	459.3835144042969	-678.9581298828125	800.02734375	466.6405639648438	-731.8253173828125	796.7158203125	517.6547241210938	-841.1055297851562	1679.822387695312	298.173583984375	-695.0352783203125	1734.37353515625	160.9090270996094	-709.8676147460938	1728.260986328125	304.2928466796875	-817.3460083007812	1686.307373046875	134.4248962402344	-793.92431640625	941.5314331054688	30.48294830322266	-810.051025390625	941.9027709960938	414.3284606933594	-719.1134033203125	966.32568359375	358.7973022460938	-712.8170776367188	962.0371704101562	84.10035705566406	-800.0322265625	495.3742370605469	80.43877410888672	-788.4464721679688	660.5360107421875	45.02148818969727	-873.9749755859375	33.69647216796875	82.09212493896484	-862.8031616210938	254.0980834960938	72.77574157714844	-661.6196899414062	38.84651565551758	128.7427062988281	-731.6810913085938	41.02040100097656	168.2524261474609	-751.9414672851562	35.42949295043945	63.15862655639648	-940.7674560546875	37.42126846313477	140.6868743896484	-820.5592041015625	496.7427368164062	372.2622375488281	-786.2107543945312	785.5462036132812	413.5752868652344	-904.953369140625	35.63121795654297	355.0301208496094	-825.8721923828125	356.4334716796875	362.2294006347656	-681.0283203125	38.57213592529297	338.5341491699219	-739.1630249023438	40.75636291503906	290.8832092285156	-773.6879272460938	36.14295196533203	390.2872314453125	-953.3712158203125	32.19076538085938	293.0948486328125	
